<?xml version="1.0" encoding="utf-8"?>
<!-- Generator: Adobe Illustrator 22.0.1, SVG Export Plug-In . SVG Version: 6.00 Build 0)  -->
<svg version="1.1"
	 id="svg2" inkscape:export-filename="/home/byron/art/cards/final/PNGs/10_of_diamonds.png" inkscape:export-xdpi="215.44792" inkscape:export-ydpi="215.44792" inkscape:version="0.48.0 r9654" sodipodi:docname="10_of_diamonds.svg" xmlns:cc="http://creativecommons.org/ns#" xmlns:dc="http://purl.org/dc/elements/1.1/" xmlns:inkscape="http://www.inkscape.org/namespaces/inkscape" xmlns:rdf="http://www.w3.org/1999/02/22-rdf-syntax-ns#" xmlns:sodipodi="http://sodipodi.sourceforge.net/DTD/sodipodi-0.dtd" xmlns:svg="http://www.w3.org/2000/svg"
	 xmlns="http://www.w3.org/2000/svg" xmlns:xlink="http://www.w3.org/1999/xlink" x="0px" y="0px" viewBox="0 0 167.1 242.7"
	 style="enable-background:new 0 0 167.1 242.7;" xml:space="preserve">
<style type="text/css">
	.st0{fill:#FFFFFF;}
	.st1{fill:#DF0000;}
	.st2{enable-background:new    ;}
</style>
<sodipodi:namedview  bordercolor="#666666" borderopacity="1" gridtolerance="10" guidetolerance="10" id="namedview39" inkscape:current-layer="svg2" inkscape:cx="72.124594" inkscape:cy="147.27218" inkscape:pageopacity="0" inkscape:pageshadow="2" inkscape:window-height="977" inkscape:window-maximized="1" inkscape:window-width="1680" inkscape:window-x="0" inkscape:window-y="25" inkscape:zoom="1.7208768" objecttolerance="10" pagecolor="#ffffff" showgrid="false">
	</sodipodi:namedview>
<sodipodi:namedview  bordercolor="#666666" borderopacity="1" gridtolerance="10" guidetolerance="10" id="namedview39" inkscape:current-layer="svg2" inkscape:cx="72.124594" inkscape:cy="147.27218" inkscape:pageopacity="0" inkscape:pageshadow="2" inkscape:window-height="977" inkscape:window-maximized="1" inkscape:window-width="1680" inkscape:window-x="0" inkscape:window-y="25" inkscape:zoom="1.7208768" objecttolerance="10" pagecolor="#ffffff" showgrid="false">
	</sodipodi:namedview>
<path class="st0" d="M15,237.3c-4.5,0-8.1-3.6-8.1-8.1V13.4c0-4.5,3.6-8.1,8.1-8.1h136.8c4.5,0,8.1,3.6,8.1,8.1v215.8
	c0,4.5-3.6,8.1-8.1,8.1H15z"/>
<path d="M152,0h-0.1H15.4h-0.1C6.9,0,0.1,6.8,0.1,15.1v212.4c0,8.3,6.8,15.1,15.1,15.1h0.1h136.5h0.1c8.3,0,15.1-6.8,15.1-15.1V15.1
	C167.1,6.8,160.3,0,152,0z M18,232.6c-4.3,0-7.8-3.5-7.8-7.8V17.8c0-4.3,3.5-7.8,7.8-7.8h131.2c4.3,0,7.8,3.5,7.8,7.8v207.1
	c0,4.3-3.5,7.8-7.8,7.8H18z"/>
<g id="layer1-2-6-8-2" transform="matrix(2.5882908,0,0,2.5882908,82.928726,55.619539)">
	<path id="dl-6-8-6" inkscape:connector-curvature="0" sodipodi:nodetypes="ccccccccc" class="st1" d="M6.4,16.1
		C2.2,10.5,0,4.8,0,4.8s-2.2,5.7-6.4,11.3c-4.2,5.6-9.3,9.3-9.3,9.3s5.2,3.7,9.3,9.3C-2.2,40.3,0,46,0,46s2.2-5.7,6.4-11.3
		c4.2-5.6,9.3-9.3,9.3-9.3S10.5,21.7,6.4,16.1z"/>
</g>
<g class="st2">
	<path class="st1" d="M39.9,63.1h-5.1V30.6c-1.2,1.2-2.8,2.3-4.8,3.5c-2,1.2-3.8,2-5.4,2.6v-4.9c2.9-1.3,5.3-3,7.5-4.9
		c2.1-1.9,3.6-3.8,4.5-5.6h3.3V63.1z"/>
	<path class="st1" d="M53,42.6c0-4.9,0.5-8.9,1.5-11.9c1-3,2.5-5.3,4.5-6.9c2-1.6,4.5-2.4,7.5-2.4c2.2,0,4.2,0.4,5.9,1.3
		c1.7,0.9,3.1,2.2,4.2,3.9c1.1,1.7,2,3.7,2.6,6.2c0.6,2.4,0.9,5.7,0.9,9.8c0,4.9-0.5,8.8-1.5,11.8c-1,3-2.5,5.3-4.5,6.9
		c-2,1.6-4.5,2.4-7.5,2.4c-4,0-7.1-1.4-9.4-4.3C54.3,56,53,50.4,53,42.6z M58.2,42.6c0,6.8,0.8,11.4,2.4,13.6
		c1.6,2.3,3.6,3.4,5.9,3.4c2.3,0,4.3-1.1,5.9-3.4c1.6-2.3,2.4-6.8,2.4-13.6c0-6.8-0.8-11.4-2.4-13.6c-1.6-2.2-3.6-3.4-6-3.4
		c-2.3,0-4.2,1-5.6,3C59.1,31.1,58.2,35.8,58.2,42.6z"/>
</g>
</svg>
