<?xml version="1.0" encoding="utf-8"?>
<!-- Generator: Adobe Illustrator 22.0.1, SVG Export Plug-In . SVG Version: 6.00 Build 0)  -->
<svg version="1.1"
	 id="svg2" inkscape:export-filename="/home/byron/art/cards/final/PNGs/3_of_clubs.png" inkscape:export-xdpi="215.44792" inkscape:export-ydpi="215.44792" inkscape:version="0.48.0 r9654" sodipodi:docname="3_of_clubs.svg" xmlns:cc="http://creativecommons.org/ns#" xmlns:dc="http://purl.org/dc/elements/1.1/" xmlns:inkscape="http://www.inkscape.org/namespaces/inkscape" xmlns:rdf="http://www.w3.org/1999/02/22-rdf-syntax-ns#" xmlns:sodipodi="http://sodipodi.sourceforge.net/DTD/sodipodi-0.dtd" xmlns:svg="http://www.w3.org/2000/svg"
	 xmlns="http://www.w3.org/2000/svg" xmlns:xlink="http://www.w3.org/1999/xlink" x="0px" y="0px" viewBox="0 0 167.1 242.7"
	 style="enable-background:new 0 0 167.1 242.7;" xml:space="preserve">
<style type="text/css">
	.st0{fill:#FFFFFF;}
</style>
<sodipodi:namedview  bordercolor="#666666" borderopacity="1" gridtolerance="10" guidetolerance="10" id="namedview39" inkscape:current-layer="svg2" inkscape:cx="117.62976" inkscape:cy="148.16686" inkscape:pageopacity="0" inkscape:pageshadow="2" inkscape:window-height="977" inkscape:window-maximized="1" inkscape:window-width="1680" inkscape:window-x="0" inkscape:window-y="25" inkscape:zoom="2.4336873" objecttolerance="10" pagecolor="#ffffff" showgrid="false">
	</sodipodi:namedview>
<path class="st0" d="M15,237.3c-4.5,0-8.1-3.6-8.1-8.1V13.4c0-4.5,3.6-8.1,8.1-8.1h136.8c4.5,0,8.1,3.6,8.1,8.1v215.8
	c0,4.5-3.6,8.1-8.1,8.1H15z"/>
<path d="M152,0h-0.1H15.4h-0.1C6.9,0,0.1,6.8,0.1,15.1v212.4c0,8.3,6.8,15.1,15.1,15.1h0.1h136.5h0.1c8.3,0,15.1-6.8,15.1-15.1V15.1
	C167.1,6.8,160.3,0,152,0z M18,232.6c-4.3,0-7.8-3.5-7.8-7.8V17.8c0-4.3,3.5-7.8,7.8-7.8h131.2c4.3,0,7.8,3.5,7.8,7.8v207.1
	c0,4.3-3.5,7.8-7.8,7.8H18z"/>
<g id="layer1-1-4-8" transform="matrix(2.5125778,0,0,2.5125778,-36.788386,-1.5311156)">
	<path id="cl-9-8" inkscape:connector-curvature="0" d="M52.2,47.3c0,0,4.5-3.6,4.5-8.6c0-2.9-2.6-7.8-8.6-7.8s-8.6,4.9-8.6,7.8
		c0,5,4.5,8.6,4.5,8.6c-5-3.9-14-1.2-14,6.6c0,3.9,3.2,8.2,8.2,8.2c6,0,8.6-6.6,8.6-6.6S47.7,63,43.2,67h9.9
		c-4.5-4-3.7-11.5-3.7-11.5s2.6,6.6,8.6,6.6c5,0,8.2-4.3,8.2-8.2C66.2,46,57.3,43.3,52.2,47.3z"/>
</g>
<g>
	<path d="M20.7,52.1l5.1-0.7c0.6,2.9,1.6,5,3,6.2c1.4,1.3,3.1,1.9,5.1,1.9c2.4,0,4.4-0.8,6.1-2.5c1.7-1.7,2.5-3.7,2.5-6.2
		c0-2.3-0.8-4.3-2.3-5.8c-1.5-1.5-3.5-2.3-5.8-2.3c-1,0-2.2,0.2-3.6,0.6l0.6-4.5c0.3,0,0.6,0.1,0.8,0.1c2.2,0,4.1-0.6,5.9-1.7
		c1.7-1.1,2.6-2.9,2.6-5.2c0-1.9-0.6-3.4-1.9-4.6c-1.3-1.2-2.9-1.8-4.9-1.8c-2,0-3.6,0.6-5,1.9c-1.3,1.2-2.2,3.1-2.5,5.6l-5.1-0.9
		c0.6-3.4,2-6.1,4.2-7.9c2.2-1.9,5-2.8,8.2-2.8c2.3,0,4.4,0.5,6.3,1.5c1.9,1,3.4,2.3,4.4,4c1,1.7,1.5,3.5,1.5,5.4
		c0,1.8-0.5,3.4-1.4,4.9s-2.4,2.6-4.3,3.5c2.5,0.6,4.4,1.7,5.7,3.5s2,4,2,6.7c0,3.6-1.3,6.7-4,9.2c-2.6,2.5-6,3.8-10,3.8
		c-3.6,0-6.7-1.1-9.1-3.3C22.5,58.4,21.1,55.6,20.7,52.1z"/>
</g>
</svg>
