<?xml version="1.0" encoding="utf-8"?>
<!-- Generator: Adobe Illustrator 22.0.1, SVG Export Plug-In . SVG Version: 6.00 Build 0)  -->
<svg version="1.1"
	 id="svg2" inkscape:export-filename="/home/byron/art/cards/final/PNGs/6_of_spades.png" inkscape:export-xdpi="215.44792" inkscape:export-ydpi="215.44792" inkscape:version="0.48.0 r9654" sodipodi:docname="6_of_spades.svg" xmlns:cc="http://creativecommons.org/ns#" xmlns:dc="http://purl.org/dc/elements/1.1/" xmlns:inkscape="http://www.inkscape.org/namespaces/inkscape" xmlns:rdf="http://www.w3.org/1999/02/22-rdf-syntax-ns#" xmlns:sodipodi="http://sodipodi.sourceforge.net/DTD/sodipodi-0.dtd" xmlns:svg="http://www.w3.org/2000/svg"
	 xmlns="http://www.w3.org/2000/svg" xmlns:xlink="http://www.w3.org/1999/xlink" x="0px" y="0px" viewBox="0 0 167.1 242.7"
	 style="enable-background:new 0 0 167.1 242.7;" xml:space="preserve">
<style type="text/css">
	.st0{fill:#FFFFFF;}
</style>
<sodipodi:namedview  bordercolor="#666666" borderopacity="1" gridtolerance="10" guidetolerance="10" id="namedview39" inkscape:current-layer="svg2" inkscape:cx="106.02254" inkscape:cy="157.08206" inkscape:pageopacity="0" inkscape:pageshadow="2" inkscape:window-height="977" inkscape:window-maximized="1" inkscape:window-width="1680" inkscape:window-x="0" inkscape:window-y="25" inkscape:zoom="2.4336873" objecttolerance="10" pagecolor="#ffffff" showgrid="false">
	</sodipodi:namedview>
<path class="st0" d="M15,237.3c-4.5,0-8.1-3.6-8.1-8.1V13.4c0-4.5,3.6-8.1,8.1-8.1h136.8c4.5,0,8.1,3.6,8.1,8.1v215.8
	c0,4.5-3.6,8.1-8.1,8.1H15z"/>
<path d="M152,0h-0.1H15.4h-0.1C6.9,0,0.1,6.8,0.1,15.1v212.4c0,8.3,6.8,15.1,15.1,15.1h0.1h136.5h0.1c8.3,0,15.1-6.8,15.1-15.1V15.1
	C167.1,6.8,160.3,0,152,0z M18,232.6c-4.3,0-7.8-3.5-7.8-7.8V17.8c0-4.3,3.5-7.8,7.8-7.8h131.2c4.3,0,7.8,3.5,7.8,7.8v207.1
	c0,4.3-3.5,7.8-7.8,7.8H18z"/>
<g id="layer1-7-88" transform="matrix(2.6486789,0,0,2.4217176,83.41089,57.365995)">
	<path id="sl-4" inkscape:connector-curvature="0" sodipodi:nodetypes="cccccccccc" d="M14.6,32.1C14.1,24.7,0.4,10.8,0,7.3
		c-0.4,3.5-14.1,17.4-14.6,24.8c-0.3,5.2,3.1,7.4,6.2,7.4c3.3,0,6.1-5.1,7.1-6.1c0.4,1.3-2.9,12.2-4,12.2H5.3c-1,0-4.4-10.9-4-12.2
		c0.8,0.9,3.3,5.9,7.1,6.1C11.5,39.5,14.9,37.3,14.6,32.1z"/>
</g>
<g>
	<path d="M47.2,31.7l-5.1,0.4c-0.5-2-1.1-3.5-1.9-4.4c-1.4-1.5-3.1-2.2-5.1-2.2c-1.6,0-3,0.5-4.3,1.4c-1.6,1.2-2.9,2.9-3.8,5.1
		c-0.9,2.2-1.4,5.4-1.4,9.6c1.2-1.9,2.7-3.3,4.5-4.2c1.8-0.9,3.6-1.4,5.6-1.4c3.4,0,6.3,1.3,8.7,3.8c2.4,2.5,3.6,5.7,3.6,9.7
		c0,2.6-0.6,5-1.7,7.3c-1.1,2.2-2.7,4-4.6,5.1c-2,1.2-4.2,1.8-6.7,1.8c-4.2,0-7.7-1.6-10.4-4.7c-2.7-3.1-4-8.3-4-15.4
		c0-8,1.5-13.9,4.4-17.5c2.6-3.2,6.1-4.8,10.5-4.8c3.3,0,5.9,0.9,8,2.7C45.5,26,46.8,28.5,47.2,31.7z M26.4,49.6
		c0,1.8,0.4,3.4,1.1,5c0.7,1.6,1.8,2.8,3.1,3.7c1.3,0.8,2.7,1.3,4.2,1.3c2.2,0,4-0.9,5.6-2.6c1.5-1.7,2.3-4.1,2.3-7.1
		c0-2.9-0.8-5.1-2.3-6.8c-1.5-1.7-3.5-2.5-5.8-2.5c-2.3,0-4.3,0.8-5.9,2.5C27.2,44.8,26.4,46.9,26.4,49.6z"/>
</g>
</svg>
