<?xml version="1.0" encoding="utf-8"?>
<!-- Generator: Adobe Illustrator 22.0.1, SVG Export Plug-In . SVG Version: 6.00 Build 0)  -->
<svg version="1.1"
	 id="svg2" inkscape:export-filename="/home/byron/art/cards/final/PNGs/6_of_hearts.png" inkscape:export-xdpi="215.44792" inkscape:export-ydpi="215.44792" inkscape:version="0.48.0 r9654" sodipodi:docname="6_of_hearts.svg" xmlns:cc="http://creativecommons.org/ns#" xmlns:dc="http://purl.org/dc/elements/1.1/" xmlns:inkscape="http://www.inkscape.org/namespaces/inkscape" xmlns:rdf="http://www.w3.org/1999/02/22-rdf-syntax-ns#" xmlns:sodipodi="http://sodipodi.sourceforge.net/DTD/sodipodi-0.dtd" xmlns:svg="http://www.w3.org/2000/svg"
	 xmlns="http://www.w3.org/2000/svg" xmlns:xlink="http://www.w3.org/1999/xlink" x="0px" y="0px" viewBox="0 0 167.1 242.7"
	 style="enable-background:new 0 0 167.1 242.7;" xml:space="preserve">
<style type="text/css">
	.st0{fill:#FFFFFF;}
	.st1{fill:#DF0000;}
	.st2{enable-background:new    ;}
</style>
<sodipodi:namedview  bordercolor="#666666" borderopacity="1" gridtolerance="10" guidetolerance="10" id="namedview39" inkscape:current-layer="svg2" inkscape:cx="-28.405554" inkscape:cy="147.27218" inkscape:pageopacity="0" inkscape:pageshadow="2" inkscape:window-height="977" inkscape:window-maximized="1" inkscape:window-width="1680" inkscape:window-x="0" inkscape:window-y="25" inkscape:zoom="1.7208768" objecttolerance="10" pagecolor="#ffffff" showgrid="false">
	</sodipodi:namedview>
<path class="st0" d="M15,237.3c-4.5,0-8.1-3.6-8.1-8.1V13.4c0-4.5,3.6-8.1,8.1-8.1h136.8c4.5,0,8.1,3.6,8.1,8.1v215.8
	c0,4.5-3.6,8.1-8.1,8.1H15z"/>
<path d="M152,0h-0.1H15.4h-0.1C6.9,0,0.1,6.8,0.1,15.1v212.4c0,8.3,6.8,15.1,15.1,15.1h0.1h136.5h0.1c8.3,0,15.1-6.8,15.1-15.1V15.1
	C167.1,6.8,160.3,0,152,0z M18,232.6c-4.3,0-7.8-3.5-7.8-7.8V17.8c0-4.3,3.5-7.8,7.8-7.8h131.2c4.3,0,7.8,3.5,7.8,7.8v207.1
	c0,4.3-3.5,7.8-7.8,7.8H18z"/>
<g id="layer1-9-6-8" transform="matrix(2.7790082,0,0,2.600887,83.701068,56.859768)">
	<path id="hl-8-8" inkscape:connector-curvature="0" sodipodi:nodetypes="scsscss" class="st1" d="M7.6,7C0.9,7,0,14.2,0,14.2
		S-0.9,7-7.6,7c-4.7,0-8.9,3.2-8.9,9.3c0,8,13.6,16.1,16.5,27.9c2.8-11.8,16.5-19.9,16.5-27.9C16.5,10.2,12.3,7,7.6,7z"/>
</g>
<g class="st2">
	<path class="st1" d="M47.2,31.7l-5.1,0.4c-0.5-2-1.1-3.5-1.9-4.4c-1.4-1.5-3.1-2.2-5.1-2.2c-1.6,0-3,0.5-4.3,1.4
		c-1.6,1.2-2.9,2.9-3.8,5.1c-0.9,2.2-1.4,5.4-1.4,9.6c1.2-1.9,2.7-3.3,4.5-4.2c1.8-0.9,3.6-1.4,5.6-1.4c3.4,0,6.3,1.3,8.7,3.8
		c2.4,2.5,3.6,5.7,3.6,9.7c0,2.6-0.6,5-1.7,7.3c-1.1,2.2-2.7,4-4.6,5.1c-2,1.2-4.2,1.8-6.7,1.8c-4.2,0-7.7-1.6-10.4-4.7
		c-2.7-3.1-4-8.3-4-15.4c0-8,1.5-13.9,4.4-17.5c2.6-3.2,6.1-4.8,10.5-4.8c3.3,0,5.9,0.9,8,2.7C45.5,26,46.8,28.5,47.2,31.7z
		 M26.4,49.6c0,1.8,0.4,3.4,1.1,5c0.7,1.6,1.8,2.8,3.1,3.7c1.3,0.8,2.7,1.3,4.2,1.3c2.2,0,4-0.9,5.6-2.6c1.5-1.7,2.3-4.1,2.3-7.1
		c0-2.9-0.8-5.1-2.3-6.8c-1.5-1.7-3.5-2.5-5.8-2.5c-2.3,0-4.3,0.8-5.9,2.5C27.2,44.8,26.4,46.9,26.4,49.6z"/>
</g>
</svg>
