<?xml version="1.0" encoding="utf-8"?>
<!-- Generator: Adobe Illustrator 22.0.1, SVG Export Plug-In . SVG Version: 6.00 Build 0)  -->
<svg version="1.1"
	 id="svg2" inkscape:export-filename="/home/byron/art/cards/final/PNGs/8_of_hearts.png" inkscape:export-xdpi="215.44792" inkscape:export-ydpi="215.44792" inkscape:version="0.48.0 r9654" sodipodi:docname="8_of_hearts.svg" xmlns:cc="http://creativecommons.org/ns#" xmlns:dc="http://purl.org/dc/elements/1.1/" xmlns:inkscape="http://www.inkscape.org/namespaces/inkscape" xmlns:rdf="http://www.w3.org/1999/02/22-rdf-syntax-ns#" xmlns:sodipodi="http://sodipodi.sourceforge.net/DTD/sodipodi-0.dtd" xmlns:svg="http://www.w3.org/2000/svg"
	 xmlns="http://www.w3.org/2000/svg" xmlns:xlink="http://www.w3.org/1999/xlink" x="0px" y="0px" viewBox="0 0 167.1 242.7"
	 style="enable-background:new 0 0 167.1 242.7;" xml:space="preserve">
<style type="text/css">
	.st0{fill:#FFFFFF;}
	.st1{fill:#DF0000;}
	.st2{enable-background:new    ;}
</style>
<sodipodi:namedview  bordercolor="#666666" borderopacity="1" gridtolerance="10" guidetolerance="10" id="namedview39" inkscape:current-layer="svg2" inkscape:cx="-28.405554" inkscape:cy="147.27218" inkscape:pageopacity="0" inkscape:pageshadow="2" inkscape:window-height="977" inkscape:window-maximized="1" inkscape:window-width="1680" inkscape:window-x="0" inkscape:window-y="25" inkscape:zoom="1.7208768" objecttolerance="10" pagecolor="#ffffff" showgrid="false">
	</sodipodi:namedview>
<path class="st0" d="M15,237.3c-4.5,0-8.1-3.6-8.1-8.1V13.4c0-4.5,3.6-8.1,8.1-8.1h136.8c4.5,0,8.1,3.6,8.1,8.1v215.8
	c0,4.5-3.6,8.1-8.1,8.1H15z"/>
<path d="M152,0h-0.1H15.4h-0.1C6.9,0,0.1,6.8,0.1,15.1v212.4c0,8.3,6.8,15.1,15.1,15.1h0.1h136.5h0.1c8.3,0,15.1-6.8,15.1-15.1V15.1
	C167.1,6.8,160.3,0,152,0z M18,232.6c-4.3,0-7.8-3.5-7.8-7.8V17.8c0-4.3,3.5-7.8,7.8-7.8h131.2c4.3,0,7.8,3.5,7.8,7.8v207.1
	c0,4.3-3.5,7.8-7.8,7.8H18z"/>
<g id="layer1-9-6-8" transform="matrix(2.7790082,0,0,2.600887,83.701068,56.859768)">
	<path id="hl-8-8" inkscape:connector-curvature="0" sodipodi:nodetypes="scsscss" class="st1" d="M7.6,7C0.9,7,0,14.2,0,14.2
		S-0.9,7-7.6,7c-4.7,0-8.9,3.2-8.9,9.3c0,8,13.6,16.1,16.5,27.9c2.8-11.8,16.5-19.9,16.5-27.9C16.5,10.2,12.3,7,7.6,7z"/>
</g>
<g class="st2">
	<path class="st1" d="M28.6,40.6c-2.1-0.8-3.7-1.9-4.7-3.3c-1-1.4-1.5-3.2-1.5-5.2c0-3,1.1-5.6,3.3-7.6c2.2-2.1,5.1-3.1,8.7-3.1
		c3.6,0,6.5,1.1,8.8,3.2c2.2,2.1,3.3,4.7,3.3,7.7c0,1.9-0.5,3.6-1.5,5c-1,1.4-2.5,2.5-4.6,3.3c2.5,0.8,4.5,2.2,5.8,4
		c1.3,1.9,2,4.1,2,6.6c0,3.5-1.3,6.5-3.8,8.9c-2.5,2.4-5.8,3.6-9.9,3.6c-4.1,0-7.4-1.2-9.9-3.6c-2.5-2.4-3.8-5.5-3.8-9.1
		c0-2.7,0.7-5,2.1-6.8C24.1,42.5,26,41.2,28.6,40.6z M25.9,51.1c0,1.5,0.3,2.9,1,4.2c0.7,1.4,1.7,2.4,3.1,3.2
		c1.4,0.7,2.8,1.1,4.4,1.1c2.4,0,4.4-0.8,6-2.4c1.6-1.6,2.4-3.6,2.4-6c0-2.5-0.8-4.5-2.4-6.1c-1.6-1.6-3.7-2.4-6.1-2.4
		c-2.4,0-4.4,0.8-6,2.4C26.7,46.7,25.9,48.7,25.9,51.1z M27.5,31.9c0,2,0.6,3.6,1.9,4.8c1.3,1.2,2.9,1.9,4.9,1.9
		c2,0,3.6-0.6,4.8-1.9c1.3-1.2,1.9-2.8,1.9-4.5c0-1.9-0.6-3.4-1.9-4.7c-1.3-1.3-2.9-1.9-4.8-1.9c-1.9,0-3.6,0.6-4.8,1.9
		C28.2,28.7,27.5,30.2,27.5,31.9z"/>
</g>
</svg>
