<?xml version="1.0" encoding="utf-8"?>
<!-- Generator: Adobe Illustrator 22.0.1, SVG Export Plug-In . SVG Version: 6.00 Build 0)  -->
<svg version="1.1"
	 id="svg2" inkscape:export-filename="/home/byron/art/cards/final/PNGs/queen_of_clubs2.png" inkscape:export-xdpi="215.44792" inkscape:export-ydpi="215.44792" inkscape:version="0.48.0 r9654" sodipodi:docname="queen_of_clubs2.svg" xmlns:cc="http://creativecommons.org/ns#" xmlns:dc="http://purl.org/dc/elements/1.1/" xmlns:inkscape="http://www.inkscape.org/namespaces/inkscape" xmlns:rdf="http://www.w3.org/1999/02/22-rdf-syntax-ns#" xmlns:sodipodi="http://sodipodi.sourceforge.net/DTD/sodipodi-0.dtd" xmlns:svg="http://www.w3.org/2000/svg"
	 xmlns="http://www.w3.org/2000/svg" xmlns:xlink="http://www.w3.org/1999/xlink" x="0px" y="0px" viewBox="0 0 167.1 242.7"
	 style="enable-background:new 0 0 167.1 242.7;" xml:space="preserve">
<style type="text/css">
	.st0{fill:#FFFFFF;}
</style>
<path class="st0" d="M15,237.3c-4.5,0-8.1-3.6-8.1-8.1V13.4c0-4.5,3.6-8.1,8.1-8.1h136.8c4.5,0,8.1,3.6,8.1,8.1v215.8
	c0,4.5-3.6,8.1-8.1,8.1H15z"/>
<path d="M152,0h-0.1H15.4h-0.1C6.9,0,0.1,6.8,0.1,15.1v212.4c0,8.3,6.8,15.1,15.1,15.1h0.1h136.5h0.1c8.3,0,15.1-6.8,15.1-15.1V15.1
	C167.1,6.8,160.3,0,152,0z M18,232.6c-4.3,0-7.8-3.5-7.8-7.8V17.8c0-4.3,3.5-7.8,7.8-7.8h131.2c4.3,0,7.8,3.5,7.8,7.8v207.1
	c0,4.3-3.5,7.8-7.8,7.8H18z"/>
<g id="layer1-1-4-8" transform="matrix(2.5125778,0,0,2.5125778,-36.788386,-1.5311156)">
	<path id="cl-9-8" inkscape:connector-curvature="0" d="M52.2,47.3c0,0,4.5-3.6,4.5-8.6c0-2.9-2.6-7.8-8.6-7.8s-8.6,4.9-8.6,7.8
		c0,5,4.5,8.6,4.5,8.6c-5-3.9-14-1.2-14,6.6c0,3.9,3.2,8.2,8.2,8.2c6,0,8.6-6.6,8.6-6.6S47.7,63,43.2,67h9.9
		c-4.5-4-3.7-11.5-3.7-11.5s2.6,6.6,8.6,6.6c5,0,8.2-4.3,8.2-8.2C66.2,46,57.3,43.3,52.2,47.3z"/>
</g>
<g>
	<path d="M54.2,58.6c2.5,1.8,4.9,3,7.1,3.9l-1.6,3.8c-3-1.1-6-2.8-8.9-5.1c-3.1,1.7-6.5,2.6-10.2,2.6c-3.8,0-7.2-0.9-10.2-2.7
		s-5.4-4.4-7.1-7.6c-1.7-3.3-2.5-7-2.5-11.1c0-4.1,0.8-7.8,2.5-11.2c1.7-3.4,4-5.9,7.1-7.7c3.1-1.8,6.5-2.6,10.3-2.6
		c3.8,0,7.3,0.9,10.4,2.7c3.1,1.8,5.4,4.4,7,7.6c1.6,3.3,2.4,7,2.4,11.1c0,3.4-0.5,6.5-1.6,9.2C57.9,54.2,56.3,56.6,54.2,58.6z
		 M42.2,51.6c3.2,0.9,5.8,2.2,7.8,4c3.2-2.9,4.8-7.4,4.8-13.3c0-3.4-0.6-6.3-1.7-8.8c-1.1-2.5-2.8-4.5-5-5.8
		c-2.2-1.4-4.7-2.1-7.4-2.1c-4.1,0-7.5,1.4-10.2,4.2c-2.7,2.8-4,7-4,12.6c0,5.4,1.3,9.5,4,12.4c2.7,2.9,6.1,4.3,10.2,4.3
		c2,0,3.8-0.4,5.6-1.1c-1.7-1.1-3.5-1.9-5.4-2.4L42.2,51.6z"/>
</g>
</svg>
